<?xml version="1.0" encoding="UTF-8"?>
<svg xmlns="http://www.w3.org/2000/svg" width="18" height="18" viewBox="0 0 18 18" fill="none">
  <path d="M12.4247 16.4993C12.4284 16.4993 12.4419 16.4993 12.4457 16.4993C12.8417 16.4993 13.2159 16.3433 13.4994 16.0597L15.5334 14.0258C15.8267 13.7325 15.8267 13.2585 15.5334 12.9653L12.5334 9.96525C12.2402 9.672 11.7662 9.672 11.4729 9.96525L10.2774 11.1607C9.72316 10.9957 8.68891 10.6207 8.03341 9.96525C7.37791 9.30975 7.00291 8.2755 6.83791 7.72125L8.03341 6.52575C8.32666 6.2325 8.32666 5.7585 8.03341 5.46525L5.03341 2.46525C4.75216 2.184 4.25416 2.184 3.97291 2.46525L1.93966 4.49925C1.65466 4.78425 1.49416 5.17575 1.50016 5.5755C1.51741 6.6435 1.80016 10.353 4.72366 13.2765C7.64716 16.2 11.3567 16.482 12.4247 16.4993ZM4.50391 4.056L6.44341 5.9955L5.47366 6.96525C5.29441 7.14375 5.21791 7.40175 5.27041 7.64925C5.28841 7.7355 5.72866 9.78075 6.97366 11.0258C8.21866 12.2708 10.2639 12.711 10.3502 12.729C10.5999 12.7815 10.8557 12.705 11.0342 12.5258L12.0039 11.556L13.9434 13.4955L12.4389 14.9993C11.5029 14.9835 8.30041 14.7323 5.78416 12.2153C3.25966 9.69075 3.01516 6.477 3.00016 5.55975L4.50391 4.056ZM14.9994 8.24925H16.4994C16.4994 4.40175 13.5947 1.5 9.74191 1.5V3C12.7884 3 14.9994 5.20725 14.9994 8.24925Z" fill="#F54C16"></path>
  <path d="M9.75 6C11.3273 6 12 6.67275 12 8.25H13.5C13.5 5.83125 12.1688 4.5 9.75 4.5V6Z" fill="#F54C16"></path>
</svg>
